<svg width="331" height="336" viewBox="0 0 331 336" fill="none" xmlns="http://www.w3.org/2000/svg">
<g clip-path="url(#clip0_0_3)">
<path d="M95.48 93.23L98.09 95.23L105.72 85.09L119.08 95.21L111.45 105.29L114.05 107.29L121.69 97.21L124.44 99.3L130.54 91.25L128.34 89.59L128.9 88.84L125.11 85.97L124.55 86.71L112.71 77.71L113.27 76.97L109.48 74.09L108.91 74.84L106.5 73.09L100.4 81.09L103.12 83.14L95.48 93.23ZM129.03 91.46L122.62 96.58L119.76 94.41L126.2 89.26L129.03 91.46ZM116.74 92.17L113.88 90L120.31 84.85L123.18 87.02L116.74 92.17ZM110.88 87.73L108.03 85.56L114.47 80.41L117.33 82.58L110.88 87.73ZM108.59 75.97L111.45 78.14L105.03 83.29L102.18 81.09L108.59 75.97Z" fill="#00E17F"/>
<path d="M180.77 197.36C179.25 192.01 175.92 186.72 170.67 184.88C169.15 184.392 167.538 184.255 165.957 184.478C164.376 184.701 162.866 185.28 161.54 186.17C167.21 173.35 161.42 155.96 148.9 148.69C134.42 140.28 114.68 144.61 102.82 156.44C98.33 139.07 76.31 129.53 59.82 136.44C43.33 143.35 34.5 163.81 38.89 181.2C33.4692 179.332 27.6171 179.108 22.0694 180.556C16.5216 182.004 11.5258 185.06 7.71001 189.34C3.91001 193.75 0.850011 204.81 1.36001 215.27C1.66934 221.237 4.25246 226.859 8.57853 230.98C12.9046 235.102 18.645 237.41 24.62 237.43L145.7 238.06C150.986 238.739 156.358 238.097 161.335 236.19C166.312 234.284 170.739 231.173 174.218 227.137C177.698 223.1 180.123 218.263 181.275 213.06C182.427 207.856 182.271 202.448 180.82 197.32L180.77 197.36Z" fill="white"/>
<path d="M149.49 239.6C148.179 239.602 146.87 239.519 145.57 239.35L24.57 238.72C18.2662 238.715 12.2051 236.29 7.63827 231.944C3.07148 227.599 0.347892 221.666 0.0300138 215.37C-0.469986 205.08 2.39002 193.56 6.68002 188.57C10.3991 184.362 15.2176 181.273 20.5947 179.652C25.9717 178.03 31.6943 177.939 37.12 179.39C33.7 161.46 43.29 142.04 59.25 135.33C67.84 131.72 78.37 132.25 87.44 136.74C95.17 140.57 100.89 146.83 103.44 154.14C116.35 142.49 135.81 139.63 149.54 147.61C161.73 154.69 167.79 170.61 163.79 183.71C166.163 182.925 168.727 182.925 171.1 183.71C176.1 185.47 180.1 190.33 181.98 197.03C183.399 202.03 183.633 207.292 182.664 212.399C181.695 217.505 179.549 222.316 176.396 226.449C173.244 230.581 169.172 233.922 164.503 236.207C159.834 238.492 154.698 239.657 149.5 239.61L149.49 239.6ZM29.57 180.9C25.6105 180.874 21.6907 181.689 18.0702 183.292C14.4498 184.896 11.2115 187.25 8.57001 190.2C5.18001 194.13 2.00001 204.57 2.57001 215.25C2.85162 220.901 5.29013 226.229 9.38311 230.136C13.4761 234.043 18.9117 236.231 24.57 236.25L145.65 236.88H145.81C150.889 237.526 156.05 236.904 160.83 235.069C165.61 233.235 169.862 230.245 173.204 226.366C176.547 222.487 178.877 217.841 179.986 212.843C181.095 207.844 180.949 202.648 179.56 197.72C178.77 194.92 176.28 188.2 170.26 186.08C168.926 185.658 167.514 185.543 166.129 185.742C164.744 185.941 163.421 186.449 162.26 187.23C162.035 187.381 161.767 187.455 161.497 187.44C161.226 187.426 160.968 187.324 160.76 187.15C160.555 186.973 160.412 186.735 160.35 186.47C160.289 186.206 160.314 185.929 160.42 185.68C165.83 173.46 160.17 156.68 148.3 149.79C134.98 142.05 115.82 145.3 103.73 157.34C103.576 157.498 103.382 157.611 103.169 157.667C102.956 157.723 102.732 157.721 102.52 157.66C102.309 157.601 102.116 157.488 101.962 157.332C101.807 157.176 101.696 156.982 101.64 156.77C99.72 149.33 94.16 142.85 86.39 139C77.96 134.83 68.21 134.32 60.28 137.66C44.77 144.18 35.71 163.6 40.08 180.96C40.132 181.18 40.1239 181.409 40.0567 181.625C39.9895 181.84 39.8656 182.034 39.698 182.185C39.5303 182.337 39.3252 182.44 39.1039 182.485C38.8826 182.53 38.6533 182.514 38.44 182.44C35.5965 181.411 32.5941 180.89 29.57 180.9Z" fill="#00E17F"/>
<path d="M327.95 172.72C326.86 168.88 324.47 165.08 320.7 163.72C319.608 163.368 318.449 163.269 317.313 163.43C316.177 163.591 315.092 164.008 314.14 164.65C318.21 155.44 314.05 142.94 305.06 137.72C294.65 131.72 280.48 134.79 271.95 143.28C268.73 130.84 252.9 123.99 241.03 128.99C229.16 133.99 222.84 148.65 226.03 161.15C222.136 159.807 217.933 159.644 213.947 160.684C209.962 161.723 206.372 163.917 203.63 166.99C200.9 170.16 198.7 178.1 199.07 185.62C199.29 189.908 201.145 193.95 204.253 196.913C207.361 199.876 211.486 201.535 215.78 201.55L302.78 202C306.579 202.487 310.439 202.025 314.015 200.654C317.59 199.283 320.771 197.047 323.271 194.146C325.77 191.245 327.512 187.769 328.339 184.03C329.166 180.291 329.053 176.405 328.01 172.72H327.95Z" fill="white"/>
<path d="M305.59 203.43C304.604 203.43 303.619 203.37 302.64 203.25L215.72 202.8C211.103 202.793 206.666 201.012 203.325 197.826C199.984 194.639 197.996 190.291 197.77 185.68C197.41 178.21 199.5 169.82 202.63 166.18C205.279 163.172 208.7 160.945 212.523 159.74C216.345 158.534 220.425 158.396 224.32 159.34C222.13 146.45 229.08 132.65 240.53 127.84C243.83 126.539 247.369 125.956 250.913 126.128C254.456 126.3 257.922 127.225 261.08 128.84C266.319 131.32 270.42 135.699 272.55 141.09C281.93 132.92 295.83 130.98 305.69 136.71C314.39 141.71 318.81 153 316.27 162.43C317.869 162.013 319.556 162.075 321.12 162.61C324.83 163.92 327.76 167.49 329.12 172.41C330.143 176.043 330.309 179.864 329.604 183.572C328.9 187.279 327.345 190.773 325.061 193.778C322.778 196.783 319.828 199.217 316.444 200.888C313.06 202.56 309.334 203.423 305.56 203.41L305.59 203.43ZM219.32 161.25C216.531 161.237 213.772 161.815 211.222 162.946C208.673 164.077 206.392 165.734 204.53 167.81C202.2 170.52 199.9 178.08 200.27 185.56C200.475 189.529 202.192 193.269 205.07 196.011C207.947 198.752 211.766 200.287 215.74 200.3L302.74 200.75H302.89C306.479 201.207 310.124 200.768 313.502 199.472C316.88 198.177 319.884 196.066 322.247 193.326C324.61 190.587 326.258 187.306 327.043 183.775C327.829 180.243 327.728 176.573 326.75 173.09C326.2 171.14 324.46 166.43 320.29 164.97C319.38 164.679 318.416 164.598 317.47 164.733C316.525 164.868 315.622 165.216 314.83 165.75C314.605 165.9 314.338 165.974 314.068 165.959C313.798 165.944 313.54 165.843 313.333 165.669C313.126 165.496 312.98 165.26 312.918 164.997C312.857 164.734 312.882 164.458 312.99 164.21C316.81 155.58 312.81 143.74 304.43 138.87C294.99 133.39 281.43 135.69 272.84 144.24C272.683 144.394 272.488 144.505 272.276 144.561C272.063 144.616 271.839 144.615 271.626 144.558C271.414 144.5 271.22 144.388 271.065 144.232C270.909 144.076 270.797 143.882 270.74 143.67C269.953 140.923 268.584 138.377 266.726 136.206C264.867 134.036 262.563 132.291 259.97 131.09C257.137 129.628 254.026 128.782 250.842 128.61C247.659 128.438 244.475 128.942 241.5 130.09C230.5 134.71 224.09 148.48 227.19 160.79C227.248 161.009 227.244 161.24 227.178 161.457C227.113 161.674 226.989 161.869 226.82 162.02C226.651 162.173 226.443 162.277 226.22 162.321C225.996 162.365 225.764 162.347 225.55 162.27C223.548 161.572 221.44 161.227 219.32 161.25Z" fill="#00E17F"/>
<path d="M190.44 138.57C190.109 138.571 189.787 138.468 189.518 138.276C189.249 138.084 189.047 137.813 188.94 137.5L188.13 135.09C188.047 134.909 187.917 134.754 187.753 134.642C187.59 134.529 187.398 134.463 187.2 134.45L183.28 134.19C183.074 134.16 182.863 134.191 182.675 134.28C182.486 134.369 182.328 134.512 182.22 134.69L181.08 136.98C180.989 137.166 180.861 137.331 180.705 137.467C180.549 137.603 180.367 137.706 180.17 137.77C179.973 137.84 179.764 137.868 179.555 137.853C179.347 137.837 179.144 137.778 178.96 137.68L176.33 136.38C176.144 136.288 175.979 136.161 175.843 136.006C175.706 135.85 175.602 135.669 175.536 135.473C175.47 135.277 175.444 135.069 175.458 134.863C175.473 134.657 175.527 134.455 175.62 134.27L176.76 131.98C176.842 131.796 176.867 131.592 176.831 131.394C176.796 131.196 176.701 131.013 176.56 130.87L173.98 127.87C173.856 127.7 173.684 127.571 173.486 127.499C173.289 127.428 173.074 127.418 172.87 127.47L170.44 128.29C170.243 128.356 170.035 128.382 169.828 128.368C169.621 128.353 169.418 128.298 169.233 128.205C169.047 128.112 168.881 127.983 168.745 127.826C168.609 127.669 168.506 127.487 168.44 127.29L167.5 124.49C167.433 124.293 167.405 124.085 167.419 123.877C167.433 123.67 167.489 123.467 167.582 123.281C167.675 123.095 167.804 122.929 167.961 122.793C168.119 122.657 168.302 122.554 168.5 122.49L170.93 121.67C171.118 121.597 171.28 121.47 171.394 121.304C171.508 121.138 171.569 120.941 171.57 120.74L171.83 116.83C171.869 116.623 171.841 116.409 171.752 116.219C171.662 116.029 171.514 115.872 171.33 115.77L169.03 114.67C168.653 114.48 168.366 114.15 168.23 113.75C168.165 113.556 168.14 113.35 168.155 113.146C168.17 112.942 168.227 112.742 168.32 112.56L169.63 109.92C169.721 109.734 169.848 109.568 170.005 109.432C170.161 109.297 170.343 109.194 170.54 109.13C170.735 109.061 170.942 109.033 171.148 109.046C171.355 109.06 171.556 109.116 171.74 109.21L174.04 110.35C174.222 110.43 174.425 110.454 174.621 110.418C174.817 110.382 174.997 110.289 175.14 110.15L178.14 107.57C178.308 107.445 178.436 107.273 178.505 107.075C178.575 106.877 178.583 106.663 178.53 106.46L177.72 104.03C177.654 103.833 177.628 103.625 177.642 103.418C177.657 103.211 177.712 103.008 177.805 102.823C177.898 102.637 178.027 102.471 178.184 102.335C178.341 102.199 178.523 102.096 178.72 102.03L181.51 101.1C181.707 101.033 181.915 101.005 182.123 101.019C182.33 101.033 182.533 101.089 182.719 101.182C182.905 101.275 183.071 101.404 183.207 101.561C183.343 101.719 183.446 101.902 183.51 102.1L184.33 104.53C184.41 104.713 184.539 104.87 184.704 104.983C184.868 105.096 185.061 105.161 185.26 105.17L189.18 105.43C189.385 105.467 189.597 105.438 189.785 105.348C189.973 105.259 190.129 105.112 190.23 104.93L191.37 102.64C191.461 102.453 191.589 102.286 191.746 102.149C191.902 102.012 192.084 101.908 192.281 101.842C192.479 101.776 192.687 101.749 192.895 101.765C193.102 101.78 193.304 101.836 193.49 101.93L196.12 103.24C196.306 103.331 196.471 103.459 196.607 103.614C196.744 103.77 196.848 103.951 196.914 104.147C196.98 104.343 197.006 104.551 196.992 104.757C196.977 104.963 196.922 105.165 196.83 105.35L195.69 107.64C195.609 107.825 195.586 108.029 195.623 108.227C195.661 108.426 195.757 108.608 195.9 108.75L198.48 111.75C198.598 111.924 198.768 112.056 198.965 112.128C199.163 112.2 199.378 112.207 199.58 112.15L202.01 111.33C202.405 111.201 202.835 111.229 203.21 111.41C203.396 111.501 203.562 111.628 203.698 111.785C203.833 111.941 203.936 112.123 204 112.32L204.94 115.11C205.006 115.307 205.032 115.515 205.018 115.722C205.003 115.929 204.948 116.132 204.855 116.317C204.762 116.503 204.633 116.669 204.476 116.805C204.319 116.941 204.137 117.044 203.94 117.11L201.51 117.92C201.327 117.999 201.169 118.128 201.056 118.293C200.943 118.457 200.878 118.65 200.87 118.85L200.61 122.77C200.58 122.976 200.611 123.187 200.7 123.375C200.789 123.564 200.932 123.722 201.11 123.83L203.4 124.97C203.587 125.061 203.754 125.189 203.891 125.346C204.028 125.502 204.132 125.684 204.198 125.881C204.264 126.079 204.291 126.287 204.275 126.495C204.26 126.702 204.204 126.904 204.11 127.09L202.81 129.72C202.717 129.906 202.588 130.072 202.43 130.208C202.272 130.344 202.088 130.446 201.89 130.51C201.695 130.58 201.487 130.608 201.28 130.592C201.074 130.577 200.873 130.518 200.69 130.42L198.4 129.29C198.218 129.21 198.015 129.186 197.819 129.222C197.623 129.258 197.443 129.351 197.3 129.49L194.3 132.07C194.126 132.188 193.994 132.358 193.922 132.555C193.85 132.753 193.843 132.968 193.9 133.17L194.72 135.61C194.787 135.807 194.815 136.015 194.801 136.223C194.787 136.43 194.731 136.633 194.638 136.819C194.545 137.005 194.416 137.171 194.259 137.307C194.101 137.443 193.918 137.546 193.72 137.61L190.93 138.55C190.769 138.585 190.603 138.592 190.44 138.57ZM187.28 133.43C187.676 133.448 188.057 133.583 188.375 133.818C188.694 134.053 188.936 134.377 189.07 134.75L189.89 137.18C189.94 137.324 190.045 137.442 190.181 137.51C190.318 137.577 190.475 137.588 190.62 137.54L193.41 136.61C193.554 136.56 193.672 136.455 193.74 136.319C193.807 136.182 193.818 136.025 193.77 135.88L192.96 133.44C192.836 133.042 192.84 132.614 192.97 132.218C193.101 131.822 193.353 131.476 193.69 131.23L196.57 128.73C196.861 128.447 197.231 128.259 197.631 128.191C198.031 128.123 198.442 128.179 198.81 128.35L201.11 129.48C201.177 129.516 201.251 129.537 201.327 129.543C201.403 129.549 201.479 129.54 201.551 129.515C201.623 129.491 201.689 129.452 201.746 129.402C201.802 129.351 201.848 129.289 201.88 129.22L203.19 126.59C203.22 126.52 203.235 126.446 203.235 126.37C203.235 126.294 203.22 126.22 203.19 126.15C203.167 126.077 203.129 126.009 203.079 125.951C203.029 125.893 202.968 125.845 202.9 125.81L200.61 124.68C200.24 124.486 199.939 124.182 199.751 123.809C199.562 123.436 199.496 123.013 199.56 122.6L199.81 118.79C199.814 118.382 199.943 117.986 200.179 117.653C200.415 117.321 200.747 117.069 201.13 116.93L203.56 116.11C203.706 116.062 203.826 115.958 203.896 115.821C203.965 115.685 203.977 115.526 203.93 115.38L203.03 112.59C202.976 112.449 202.873 112.332 202.74 112.26C202.67 112.23 202.596 112.215 202.52 112.215C202.444 112.215 202.37 112.23 202.3 112.26L199.87 113.08C199.472 113.204 199.044 113.2 198.648 113.07C198.252 112.939 197.906 112.687 197.66 112.35L195.15 109.47C194.863 109.18 194.672 108.808 194.602 108.406C194.533 108.004 194.588 107.59 194.76 107.22L195.91 104.93C195.969 104.786 195.969 104.624 195.91 104.48C195.859 104.339 195.755 104.224 195.62 104.16L193.03 102.81C192.96 102.78 192.886 102.765 192.81 102.765C192.734 102.765 192.66 102.78 192.59 102.81C192.447 102.861 192.329 102.964 192.26 103.1L191.12 105.39C190.92 105.749 190.613 106.038 190.243 106.217C189.873 106.396 189.456 106.456 189.05 106.39L185.23 106.14C184.822 106.136 184.426 106.007 184.093 105.771C183.761 105.535 183.509 105.203 183.37 104.82L182.56 102.39C182.51 102.244 182.404 102.123 182.266 102.054C182.127 101.984 181.967 101.972 181.82 102.02L179.04 102.96C178.967 102.984 178.899 103.022 178.841 103.072C178.782 103.122 178.734 103.184 178.7 103.252C178.665 103.321 178.645 103.396 178.64 103.473C178.635 103.55 178.645 103.627 178.67 103.7L179.49 106.12C179.614 106.518 179.61 106.946 179.48 107.342C179.349 107.738 179.097 108.084 178.76 108.33L175.88 110.84C175.588 111.125 175.217 111.314 174.815 111.382C174.412 111.45 173.999 111.394 173.63 111.22L171.31 110.09C171.168 110.035 171.012 110.035 170.87 110.09C170.727 110.141 170.609 110.244 170.54 110.38L169.23 113.02C169.175 113.162 169.175 113.318 169.23 113.46C169.254 113.533 169.293 113.6 169.345 113.657C169.397 113.714 169.46 113.759 169.53 113.79L171.82 114.93C172.181 115.131 172.471 115.439 172.65 115.811C172.829 116.184 172.889 116.602 172.82 117.01L172.57 120.82C172.566 121.228 172.437 121.624 172.201 121.957C171.965 122.289 171.633 122.541 171.25 122.68L168.82 123.5C168.676 123.55 168.558 123.655 168.49 123.791C168.423 123.928 168.412 124.085 168.46 124.23L169.4 127.02C169.45 127.162 169.553 127.278 169.687 127.345C169.822 127.412 169.977 127.425 170.12 127.38L172.56 126.56C172.958 126.436 173.386 126.44 173.782 126.57C174.178 126.701 174.524 126.953 174.77 127.29L177.27 130.17C177.557 130.46 177.748 130.832 177.818 131.234C177.887 131.636 177.832 132.05 177.66 132.42L176.51 134.71C176.443 134.848 176.433 135.007 176.482 135.153C176.53 135.298 176.634 135.419 176.77 135.49L179.41 136.79C179.48 136.819 179.554 136.834 179.63 136.834C179.706 136.834 179.78 136.819 179.85 136.79C179.993 136.739 180.111 136.636 180.18 136.5L181.33 134.2C181.53 133.841 181.837 133.552 182.207 133.373C182.577 133.194 182.994 133.134 183.4 133.2L187.21 133.45L187.28 133.43ZM186.21 128.89C183.919 128.895 181.71 128.037 180.022 126.488C178.334 124.938 177.292 122.81 177.102 120.527C176.912 118.244 177.588 115.973 178.996 114.165C180.404 112.358 182.441 111.147 184.701 110.772C186.961 110.398 189.28 110.889 191.195 112.146C193.11 113.403 194.482 115.336 195.038 117.558C195.594 119.781 195.292 122.131 194.194 124.142C193.095 126.153 191.281 127.676 189.11 128.41C188.176 128.726 187.196 128.888 186.21 128.89ZM186.21 111.7C185.33 111.701 184.455 111.843 183.62 112.12C182.613 112.459 181.682 112.993 180.881 113.691C180.08 114.39 179.425 115.239 178.952 116.191C178.479 117.143 178.199 118.178 178.127 119.238C178.054 120.299 178.191 121.363 178.53 122.37C178.869 123.377 179.403 124.308 180.101 125.109C180.8 125.91 181.649 126.565 182.601 127.038C183.553 127.51 184.588 127.791 185.648 127.863C186.709 127.936 187.773 127.799 188.78 127.46C190.297 126.949 191.629 125.999 192.606 124.73C193.583 123.462 194.162 121.932 194.269 120.334C194.376 118.737 194.007 117.143 193.208 115.756C192.408 114.368 191.216 113.249 189.78 112.54C188.673 111.993 187.455 111.705 186.22 111.7H186.21Z" fill="#00E17F"/>
<path d="M226.23 122.63L224.67 122.36C224.483 122.322 224.312 122.228 224.18 122.09C224.048 121.953 223.961 121.778 223.93 121.59L223.4 119.24C223.355 119.06 223.362 118.871 223.418 118.695C223.475 118.518 223.579 118.361 223.72 118.24L225.02 117.32C225.092 117.269 225.152 117.205 225.199 117.13C225.245 117.056 225.276 116.973 225.29 116.886C225.304 116.8 225.301 116.711 225.28 116.626C225.259 116.541 225.222 116.461 225.17 116.39L224.12 114.9C224.017 114.756 223.862 114.658 223.688 114.628C223.514 114.599 223.335 114.639 223.19 114.74L221.9 115.66C221.739 115.763 221.551 115.818 221.36 115.818C221.169 115.818 220.981 115.763 220.82 115.66L218.82 114.39C218.657 114.294 218.524 114.154 218.437 113.986C218.351 113.818 218.313 113.628 218.33 113.44L218.59 111.88C218.607 111.791 218.606 111.7 218.587 111.611C218.568 111.523 218.531 111.439 218.479 111.365C218.426 111.292 218.36 111.229 218.283 111.182C218.205 111.134 218.12 111.103 218.03 111.09L216.23 110.79C216.057 110.764 215.88 110.807 215.738 110.91C215.596 111.013 215.499 111.167 215.47 111.34L215.2 112.9C215.154 113.085 215.056 113.253 214.918 113.384C214.78 113.515 214.607 113.604 214.42 113.64L212.08 114.17C211.9 114.224 211.709 114.222 211.531 114.165C211.352 114.108 211.195 113.998 211.08 113.85L210.15 112.55C210.1 112.479 210.037 112.418 209.963 112.372C209.89 112.326 209.807 112.295 209.722 112.281C209.636 112.267 209.548 112.27 209.464 112.291C209.379 112.311 209.3 112.348 209.23 112.4L207.74 113.45C207.668 113.5 207.606 113.564 207.559 113.638C207.511 113.712 207.479 113.795 207.464 113.881C207.449 113.968 207.452 114.057 207.472 114.142C207.492 114.228 207.528 114.309 207.58 114.38L208.5 115.67C208.603 115.831 208.658 116.019 208.658 116.21C208.658 116.401 208.603 116.589 208.5 116.75L207.23 118.75C207.134 118.913 206.994 119.046 206.826 119.133C206.658 119.219 206.468 119.257 206.28 119.24L204.71 118.97C204.624 118.956 204.536 118.959 204.451 118.979C204.366 118.999 204.286 119.035 204.215 119.086C204.145 119.138 204.085 119.202 204.039 119.277C203.994 119.351 203.963 119.434 203.95 119.52L203.64 121.31C203.624 121.397 203.626 121.486 203.644 121.572C203.663 121.658 203.698 121.74 203.748 121.812C203.798 121.884 203.862 121.946 203.936 121.994C204.01 122.042 204.093 122.074 204.18 122.09L205.75 122.36C205.938 122.397 206.109 122.49 206.242 122.628C206.374 122.766 206.461 122.941 206.49 123.13L207.02 125.47C207.074 125.65 207.071 125.843 207.012 126.022C206.953 126.201 206.841 126.357 206.69 126.47L205.4 127.4C205.256 127.503 205.158 127.658 205.129 127.832C205.099 128.006 205.139 128.185 205.24 128.33L206.3 129.81C206.403 129.954 206.558 130.052 206.732 130.082C206.906 130.111 207.085 130.071 207.23 129.97L208.53 129.05C208.686 128.942 208.871 128.884 209.06 128.884C209.249 128.884 209.434 128.942 209.59 129.05L211.59 130.32C211.762 130.419 211.9 130.567 211.987 130.745C212.074 130.924 212.107 131.124 212.08 131.32L211.81 132.88C211.784 133.055 211.826 133.233 211.929 133.376C212.032 133.52 212.186 133.618 212.36 133.65L214.15 133.95C214.325 133.979 214.504 133.939 214.65 133.838C214.795 133.738 214.896 133.584 214.93 133.41L215.19 131.84C215.235 131.656 215.332 131.49 215.468 131.359C215.604 131.228 215.775 131.138 215.96 131.1L218.3 130.57C218.481 130.519 218.672 130.523 218.851 130.582C219.029 130.641 219.185 130.751 219.3 130.9L220.22 132.19C220.323 132.334 220.478 132.432 220.652 132.462C220.826 132.491 221.005 132.451 221.15 132.35L222.64 131.29C222.784 131.187 222.882 131.032 222.911 130.858C222.941 130.684 222.901 130.505 222.8 130.36L221.88 129.07C221.779 128.91 221.725 128.724 221.725 128.535C221.725 128.346 221.779 128.16 221.88 128L223.15 126C223.246 125.837 223.386 125.704 223.554 125.617C223.722 125.531 223.912 125.493 224.1 125.51L225.66 125.78C225.747 125.796 225.837 125.794 225.924 125.775C226.01 125.756 226.092 125.719 226.165 125.668C226.238 125.617 226.299 125.552 226.347 125.477C226.394 125.401 226.426 125.318 226.44 125.23L226.74 123.44C226.761 123.353 226.764 123.263 226.749 123.175C226.735 123.087 226.703 123.003 226.655 122.928C226.608 122.852 226.546 122.787 226.473 122.736C226.4 122.685 226.317 122.649 226.23 122.63ZM220.44 123.24C220.265 124.278 219.786 125.24 219.065 126.006C218.343 126.773 217.411 127.308 216.386 127.545C215.361 127.783 214.288 127.711 213.304 127.34C212.319 126.968 211.466 126.314 210.853 125.458C210.24 124.603 209.893 123.586 209.857 122.534C209.822 121.482 210.098 120.443 210.652 119.548C211.205 118.653 212.012 117.942 212.969 117.505C213.926 117.067 214.991 116.923 216.03 117.09C216.725 117.202 217.39 117.45 217.989 117.82C218.587 118.19 219.106 118.675 219.516 119.247C219.926 119.818 220.219 120.465 220.377 121.151C220.536 121.836 220.557 122.546 220.44 123.24Z" fill="#00E17F"/>
<path d="M156.7 17.64H131.19V23.24H143.52L143.58 68.99H138.68V83.41H144.12L144.06 85.28L143.99 88.35V91.42C143.984 91.8936 144.162 92.351 144.487 92.696C144.811 93.041 145.257 93.2467 145.73 93.27H145.85C146.436 93.2848 147.017 93.3756 147.58 93.54C148.71 93.8696 149.723 94.5149 150.5 95.4C150.908 95.8314 151.245 96.3241 151.5 96.86L151.6 97.06L151.68 97.26C151.73 97.4 151.79 97.53 151.83 97.67C151.913 97.9356 151.98 98.2061 152.03 98.48C152.087 98.8105 152.12 99.1447 152.13 99.48V99.84C152.14 99.9898 152.14 100.14 152.13 100.29C152.065 100.879 151.914 101.455 151.68 102C151.451 102.551 151.145 103.066 150.77 103.53C150.391 104 149.95 104.418 149.46 104.77C148.958 105.109 148.418 105.388 147.85 105.6C147.574 105.688 147.294 105.762 147.01 105.82H146.81H146.71H146.57H146H145.59C145.437 105.835 145.283 105.835 145.13 105.82C144.821 105.804 144.514 105.767 144.21 105.71C143.586 105.578 142.979 105.377 142.4 105.11C141.802 104.852 141.24 104.515 140.73 104.11C140.188 103.678 139.701 103.181 139.28 102.63C138.832 102.033 138.443 101.393 138.12 100.72L138.07 100.6H137.9V100.73C137.832 101.545 137.913 102.365 138.14 103.15C138.372 103.973 138.748 104.748 139.25 105.44C139.755 106.158 140.373 106.79 141.08 107.31C141.806 107.839 142.609 108.254 143.46 108.54C143.892 108.674 144.333 108.777 144.78 108.85C145.001 108.892 145.225 108.919 145.45 108.93H145.79H146.91H147.09H147.46C147.925 108.866 148.386 108.772 148.84 108.65C149.722 108.383 150.566 108.003 151.35 107.52C152.123 107.014 152.825 106.409 153.44 105.72C154.047 105.018 154.552 104.233 154.94 103.39C155.328 102.539 155.591 101.636 155.72 100.71C155.767 100.479 155.794 100.245 155.8 100.01V99.66V99.24C155.795 98.8149 155.762 98.3906 155.7 97.97C155.639 97.4868 155.542 97.0088 155.41 96.54C155.35 96.32 155.26 96.1 155.18 95.88L155.06 95.55L154.92 95.23C154.524 94.3752 154.009 93.5807 153.39 92.87C152.766 92.1662 152.05 91.5505 151.26 91.04C150.469 90.5292 149.606 90.1383 148.7 89.88C148.39 89.79 148.08 89.73 147.76 89.67V88.29V85.23C147.76 84.6 147.76 83.96 147.76 83.33H152.92V68.91H147.99L147.93 23.15H148.67H171.67L230.59 23.07L230.75 152.24H256.45L256.67 23.09H261.55V40.76H280.27V23.08H280.4V14.43H273.23C268.33 11.83 259.52 7.43 250.78 3.17V0H236.42V3.62L170.21 14.58H161.16L156.7 17.64ZM236.28 136.88L243.19 131.19L249.96 136.86L236.28 136.88ZM251.19 45.88L243.1 52.54L235.19 45.91L251.19 45.88ZM235.75 43.18L243.06 37.18L250.21 43.18H235.75ZM250.28 64.81L243.13 70.69L236.13 64.83L250.28 64.81ZM235.78 62.09L243.08 56.09L250.23 62.09H235.78ZM251.24 82.95L243.15 89.61L235.24 82.97L251.24 82.95ZM235.8 80.24L243.11 74.24L250.26 80.24H235.8ZM251.52 101.87L243.18 108.74L235.18 102.02V101.89L251.52 101.87ZM235.83 99.17L243.14 93.17L250.29 99.17H235.83ZM251.3 121L243.21 127.66L235.3 121.02L251.3 121ZM235.86 118.3L243.17 112.3L250.32 118.3H235.86ZM235.19 115.3V105.56L241.03 110.49L235.19 115.3ZM235.19 96.17V86.43L241.06 91.35L235.19 96.17ZM235.19 77.25V67.51L241.05 72.43L235.19 77.25ZM235.19 59.09V49.35L241.06 54.27L235.19 59.09ZM235.19 40.17V30.43L241.06 35.35L235.19 40.17ZM235.3 26.98H251.24L243.03 33.6L235.3 26.98ZM252.03 41.09L245.21 35.37L252.03 29.79V41.09ZM252.03 60.01L245.22 54.29L252.02 48.7L252.03 60.01ZM252.03 78.16L245.21 72.45L252.01 66.85L252.03 78.16ZM252.03 97.08L245.21 91.37L252.01 85.77L252.03 97.08ZM252.03 116.21L245.21 110.5L252.01 104.9L252.03 116.21ZM252.03 135.13L245.22 129.42L252.02 123.82L252.03 135.13ZM235.09 134.22V124.49L240.96 129.41L235.09 134.22ZM254.03 14.46V9.46H250.74V6.22C256.44 9.03 262.56 12.07 267.27 14.45L254.03 14.46ZM187.03 14.56L236.36 6.4V9.48H233.07V14.48L187.03 14.56Z" fill="#00E17F"/>
<path d="M256.24 306.02C256.241 306.687 256.111 307.347 255.857 307.963C255.603 308.58 255.229 309.14 254.759 309.611C254.288 310.083 253.728 310.458 253.113 310.713C252.497 310.969 251.837 311.1 251.17 311.1H96.67C96.0025 311.101 95.3413 310.971 94.7244 310.716C94.1075 310.461 93.5469 310.087 93.0749 309.615C92.603 309.143 92.2288 308.583 91.974 307.966C91.7192 307.349 91.5887 306.687 91.59 306.02V139.59C91.5887 138.923 91.7192 138.261 91.974 137.644C92.2288 137.027 92.603 136.467 93.0749 135.995C93.5469 135.523 94.1075 135.149 94.7244 134.894C95.3413 134.639 96.0025 134.509 96.67 134.51H251.17C251.837 134.51 252.497 134.641 253.113 134.897C253.728 135.152 254.288 135.527 254.759 135.998C255.229 136.47 255.603 137.03 255.857 137.647C256.111 138.263 256.241 138.923 256.24 139.59V306.02Z" fill="white"/>
<path d="M251.17 312.09H96.67C95.0583 312.087 93.5134 311.446 92.3737 310.306C91.2341 309.167 90.5926 307.622 90.59 306.01V139.59C90.59 137.977 91.2306 136.431 92.3708 135.291C93.511 134.151 95.0575 133.51 96.67 133.51H251.17C252.781 133.513 254.325 134.154 255.463 135.294C256.601 136.434 257.24 137.979 257.24 139.59V306.02C257.237 307.629 256.597 309.171 255.459 310.309C254.321 311.447 252.779 312.087 251.17 312.09ZM96.67 135.51C95.5879 135.51 94.5502 135.94 93.785 136.705C93.0199 137.47 92.59 138.508 92.59 139.59V306.02C92.59 307.102 93.0199 308.14 93.785 308.905C94.5502 309.67 95.5879 310.1 96.67 310.1H251.17C252.25 310.097 253.286 309.666 254.049 308.901C254.812 308.137 255.24 307.1 255.24 306.02V139.59C255.24 138.51 254.812 137.473 254.049 136.709C253.286 135.944 252.25 135.513 251.17 135.51H96.67Z" fill="#00E17F"/>
<path d="M256.24 152.31V140.25C256.24 137.08 253.97 134.51 251.17 134.51H96.67C93.86 134.51 91.59 137.08 91.59 140.25V152.31H256.24Z" fill="white"/>
<path d="M256.24 153.31H91.59C91.3248 153.31 91.0704 153.205 90.8829 153.017C90.6954 152.83 90.59 152.575 90.59 152.31V140.25C90.59 136.53 93.32 133.51 96.67 133.51H251.17C254.52 133.51 257.24 136.51 257.24 140.25V152.31C257.24 152.575 257.135 152.83 256.947 153.017C256.76 153.205 256.505 153.31 256.24 153.31ZM92.59 151.31H255.24V140.25C255.24 137.63 253.41 135.51 251.17 135.51H96.67C94.42 135.51 92.59 137.63 92.59 140.25V151.31Z" fill="#00E17F"/>
<path d="M111.03 144.93C111.03 145.608 110.829 146.272 110.452 146.836C110.075 147.4 109.539 147.839 108.913 148.099C108.286 148.359 107.596 148.426 106.931 148.294C106.265 148.162 105.654 147.835 105.175 147.355C104.695 146.876 104.368 146.265 104.236 145.599C104.104 144.934 104.171 144.244 104.431 143.617C104.691 142.991 105.13 142.455 105.694 142.078C106.258 141.701 106.922 141.5 107.6 141.5C108.51 141.5 109.382 141.861 110.025 142.505C110.669 143.148 111.03 144.02 111.03 144.93Z" fill="#FCDD5B"/>
<path d="M128.17 141.5C128.17 142.178 127.969 142.842 127.592 143.406C127.215 143.97 126.679 144.409 126.053 144.669C125.426 144.929 124.736 144.996 124.071 144.864C123.405 144.732 122.794 144.405 122.315 143.925C121.835 143.446 121.508 142.835 121.376 142.169C121.244 141.504 121.311 140.814 121.571 140.187C121.831 139.561 122.27 139.025 122.834 138.648C123.398 138.271 124.062 138.07 124.74 138.07C125.19 138.07 125.636 138.159 126.053 138.331C126.469 138.503 126.847 138.756 127.165 139.075C127.484 139.393 127.737 139.771 127.909 140.187C128.081 140.604 128.17 141.05 128.17 141.5Z" fill="#64B742"/>
<path d="M141.6 131.77C140.724 131.77 139.867 131.51 139.139 131.023C138.41 130.537 137.843 129.845 137.507 129.035C137.172 128.226 137.084 127.335 137.255 126.476C137.426 125.616 137.848 124.827 138.468 124.208C139.087 123.588 139.876 123.166 140.736 122.995C141.595 122.824 142.486 122.912 143.295 123.247C144.105 123.582 144.797 124.15 145.283 124.879C145.77 125.607 146.03 126.464 146.03 127.34C146.03 128.515 145.563 129.642 144.732 130.472C143.902 131.303 142.775 131.77 141.6 131.77ZM141.6 124.91C141.119 124.91 140.65 125.053 140.25 125.32C139.85 125.587 139.539 125.966 139.355 126.41C139.171 126.854 139.123 127.343 139.217 127.814C139.31 128.285 139.542 128.718 139.882 129.058C140.222 129.398 140.655 129.63 141.126 129.723C141.597 129.817 142.086 129.769 142.53 129.585C142.974 129.401 143.353 129.09 143.62 128.69C143.887 128.29 144.03 127.821 144.03 127.34C144.03 126.696 143.774 126.077 143.318 125.622C142.863 125.166 142.244 124.91 141.6 124.91Z" fill="#00E17F"/>
<path d="M141.6 216.94H110.32V223.12H141.6V216.94Z" fill="#A8CFE2"/>
<path d="M135.3 228.46H110.31V234.64H135.3V228.46Z" fill="#A8CFE2"/>
<path d="M238.17 249.71H110.32V290.51H238.17V249.71Z" fill="#00E17F"/>
<path d="M144.74 249.71H110.32V290.51H144.74V249.71Z" fill="#FFF5AB"/>
<path d="M183.61 216.94H157.53V223.12H183.61V216.94Z" fill="white"/>
<path d="M183.61 224.09H157.53C157.265 224.09 157.01 223.985 156.823 223.797C156.635 223.61 156.53 223.355 156.53 223.09V216.91C156.53 216.645 156.635 216.39 156.823 216.203C157.01 216.015 157.265 215.91 157.53 215.91H183.61C183.875 215.91 184.13 216.015 184.317 216.203C184.505 216.39 184.61 216.645 184.61 216.91V223.09C184.61 223.355 184.505 223.61 184.317 223.797C184.13 223.985 183.875 224.09 183.61 224.09ZM158.53 222.09H182.61V217.91H158.53V222.09Z" fill="#00E17F"/>
<path d="M188.81 228.46H157.53V234.64H188.81V228.46Z" fill="white"/>
<path d="M188.81 235.64H157.53C157.265 235.64 157.01 235.535 156.823 235.347C156.635 235.16 156.53 234.905 156.53 234.64V228.46C156.53 228.195 156.635 227.94 156.823 227.753C157.01 227.565 157.265 227.46 157.53 227.46H188.81C189.075 227.46 189.33 227.565 189.517 227.753C189.705 227.94 189.81 228.195 189.81 228.46V234.64C189.81 234.905 189.705 235.16 189.517 235.347C189.33 235.535 189.075 235.64 188.81 235.64ZM158.53 233.64H187.81V229.46H158.53V233.64Z" fill="#00E17F"/>
<path d="M231.68 216.94H204.74V223.12H231.68V216.94Z" fill="white"/>
<path d="M231.69 224.09H204.75C204.485 224.09 204.23 223.985 204.043 223.797C203.855 223.61 203.75 223.355 203.75 223.09V216.92C203.75 216.655 203.855 216.4 204.043 216.213C204.23 216.025 204.485 215.92 204.75 215.92H231.69C231.955 215.92 232.21 216.025 232.397 216.213C232.585 216.4 232.69 216.655 232.69 216.92V223.09C232.69 223.355 232.585 223.61 232.397 223.797C232.21 223.985 231.955 224.09 231.69 224.09ZM205.75 222.09H230.69V217.92H205.75V222.09Z" fill="#00E17F"/>
<path d="M236.02 228.46H204.74V234.64H236.02V228.46Z" fill="white"/>
<path d="M236.03 235.64H204.74C204.475 235.64 204.22 235.535 204.033 235.347C203.845 235.16 203.74 234.905 203.74 234.64V228.46C203.74 228.195 203.845 227.94 204.033 227.753C204.22 227.565 204.475 227.46 204.74 227.46H236.03C236.295 227.46 236.55 227.565 236.737 227.753C236.925 227.94 237.03 228.195 237.03 228.46V234.64C237.03 234.905 236.925 235.16 236.737 235.347C236.55 235.535 236.295 235.64 236.03 235.64ZM205.75 233.64H235.03V229.46H205.74L205.75 233.64Z" fill="#00E17F"/>
<path d="M141.6 183.15C141.598 186.156 140.705 189.094 139.033 191.592C137.362 194.09 134.987 196.037 132.21 197.186C129.432 198.335 126.376 198.634 123.429 198.047C120.481 197.459 117.773 196.011 115.648 193.884C113.524 191.758 112.077 189.05 111.491 186.102C110.906 183.153 111.207 180.098 112.358 177.321C113.509 174.544 115.457 172.171 117.956 170.501C120.456 168.831 123.394 167.94 126.4 167.94C128.397 167.939 130.375 168.331 132.221 169.095C134.066 169.859 135.743 170.98 137.154 172.393C138.566 173.805 139.686 175.483 140.449 177.329C141.211 179.174 141.603 181.153 141.6 183.15Z" fill="#FFF5AB"/>
<path d="M188.37 183.15C188.368 186.156 187.475 189.094 185.803 191.592C184.132 194.09 181.757 196.037 178.98 197.186C176.202 198.335 173.146 198.634 170.199 198.047C167.251 197.459 164.543 196.011 162.418 193.884C160.294 191.758 158.847 189.05 158.261 186.102C157.676 183.153 157.977 180.098 159.128 177.321C160.279 174.544 162.227 172.171 164.726 170.501C167.226 168.831 170.164 167.94 173.17 167.94C175.167 167.94 177.144 168.333 178.989 169.098C180.834 169.862 182.51 170.983 183.922 172.396C185.333 173.808 186.453 175.485 187.216 177.33C187.979 179.175 188.371 181.153 188.37 183.15Z" fill="white"/>
<path d="M173.17 199.35C169.963 199.352 166.828 198.403 164.16 196.622C161.493 194.842 159.414 192.31 158.186 189.348C156.958 186.386 156.636 183.125 157.261 179.98C157.886 176.835 159.43 173.945 161.698 171.678C163.965 169.41 166.855 167.866 170 167.241C173.145 166.616 176.406 166.938 179.368 168.166C182.33 169.394 184.862 171.473 186.642 174.14C188.423 176.808 189.372 179.943 189.37 183.15C189.365 187.445 187.656 191.562 184.619 194.599C181.582 197.636 177.465 199.345 173.17 199.35ZM173.17 168.94C170.359 168.938 167.611 169.77 165.273 171.33C162.934 172.89 161.112 175.109 160.035 177.705C158.957 180.302 158.675 183.159 159.222 185.916C159.769 188.673 161.122 191.206 163.108 193.194C165.095 195.183 167.627 196.537 170.384 197.086C173.141 197.635 175.998 197.355 178.596 196.279C181.193 195.204 183.413 193.383 184.974 191.046C186.536 188.709 187.37 185.961 187.37 183.15C187.367 179.384 185.871 175.772 183.209 173.108C180.546 170.444 176.936 168.945 173.17 168.94Z" fill="#00E17F"/>
<path d="M235.14 183.15C235.138 186.156 234.245 189.094 232.573 191.592C230.902 194.09 228.527 196.037 225.75 197.186C222.972 198.335 219.916 198.634 216.968 198.047C214.021 197.459 211.313 196.011 209.188 193.884C207.064 191.758 205.617 189.05 205.031 186.102C204.446 183.153 204.747 180.098 205.898 177.321C207.049 174.544 208.997 172.171 211.496 170.501C213.996 168.831 216.934 167.94 219.94 167.94C221.937 167.94 223.914 168.333 225.759 169.098C227.604 169.862 229.28 170.983 230.692 172.396C232.103 173.808 233.223 175.485 233.986 177.33C234.749 179.175 235.141 181.153 235.14 183.15Z" fill="white"/>
<path d="M219.94 199.35C216.733 199.352 213.598 198.403 210.93 196.622C208.263 194.842 206.184 192.31 204.956 189.348C203.728 186.386 203.406 183.125 204.031 179.98C204.656 176.835 206.2 173.945 208.468 171.678C210.735 169.41 213.625 167.866 216.77 167.241C219.915 166.616 223.176 166.938 226.138 168.166C229.1 169.394 231.632 171.473 233.412 174.14C235.193 176.808 236.142 179.943 236.14 183.15C236.135 187.445 234.426 191.562 231.389 194.599C228.352 197.636 224.235 199.345 219.94 199.35ZM219.94 168.94C217.129 168.938 214.381 169.77 212.043 171.33C209.705 172.89 207.882 175.109 206.805 177.705C205.727 180.302 205.445 183.159 205.992 185.916C206.539 188.673 207.892 191.206 209.878 193.194C211.865 195.183 214.397 196.537 217.154 197.086C219.911 197.635 222.769 197.355 225.366 196.279C227.963 195.204 230.183 193.383 231.744 191.046C233.306 188.709 234.14 185.961 234.14 183.15C234.137 179.384 232.641 175.772 229.979 173.108C227.316 170.444 223.706 168.945 219.94 168.94Z" fill="#00E17F"/>
<path d="M306.22 96.67C304.449 96.6604 302.708 97.1212 301.173 98.0052C299.639 98.8892 298.367 100.165 297.487 101.702C296.607 103.238 296.151 104.981 296.166 106.752C296.181 108.523 296.665 110.258 297.57 111.78L297.74 112.05L287.58 122.21C287.28 122.52 287.103 122.929 287.08 123.36C287.1 123.655 287.178 123.943 287.31 124.207C287.443 124.472 287.626 124.707 287.85 124.9C288.063 125.144 288.324 125.343 288.616 125.484C288.908 125.625 289.226 125.705 289.55 125.72C289.978 125.712 290.394 125.573 290.74 125.32L300.87 115.19L301.15 115.35C302.476 116.108 303.958 116.553 305.483 116.649C307.008 116.746 308.534 116.492 309.945 115.907C311.357 115.321 312.615 114.421 313.624 113.273C314.633 112.126 315.365 110.763 315.766 109.289C316.166 107.814 316.223 106.268 315.932 104.768C315.642 103.268 315.012 101.855 314.09 100.637C313.168 99.4182 311.98 98.4272 310.615 97.7396C309.251 97.052 307.748 96.6861 306.22 96.67ZM306.22 113.75C304.35 113.75 302.557 113.007 301.235 111.685C299.913 110.363 299.17 108.57 299.17 106.7C299.17 104.83 299.913 103.037 301.235 101.715C302.557 100.393 304.35 99.65 306.22 99.65C308.09 99.65 309.883 100.393 311.205 101.715C312.527 103.037 313.27 104.83 313.27 106.7C313.27 108.57 312.527 110.363 311.205 111.685C309.883 113.007 308.09 113.75 306.22 113.75Z" fill="#00E17F"/>
<path d="M302.51 108.17H309.77V106.31H302.51V108.17Z" fill="#00E17F"/>
<path d="M291.482 233.21C296.468 227.3 295.72 218.468 289.811 213.481C283.902 208.495 275.069 209.243 270.083 215.152C265.096 221.061 265.844 229.894 271.753 234.88C277.662 239.867 286.495 239.119 291.482 233.21Z" fill="#00E17F"/>
<path d="M280.78 234.65C286.573 234.65 291.27 229.953 291.27 224.16C291.27 218.367 286.573 213.67 280.78 213.67C274.987 213.67 270.29 218.367 270.29 224.16C270.29 229.953 274.987 234.65 280.78 234.65Z" fill="white"/>
<path d="M280.78 235.09C278.626 235.09 276.521 234.451 274.73 233.255C272.939 232.058 271.543 230.357 270.719 228.367C269.895 226.378 269.679 224.188 270.099 222.075C270.519 219.963 271.557 218.023 273.08 216.5C274.603 214.977 276.543 213.939 278.655 213.519C280.768 213.099 282.958 213.315 284.947 214.139C286.937 214.963 288.638 216.359 289.835 218.15C291.031 219.941 291.67 222.046 291.67 224.2C291.667 227.087 290.519 229.856 288.477 231.897C286.436 233.939 283.667 235.087 280.78 235.09ZM280.78 214.09C278.786 214.09 276.837 214.681 275.18 215.789C273.522 216.896 272.23 218.471 271.467 220.313C270.704 222.154 270.505 224.181 270.894 226.137C271.283 228.092 272.243 229.888 273.652 231.298C275.062 232.707 276.858 233.667 278.813 234.056C280.769 234.445 282.796 234.246 284.637 233.483C286.479 232.72 288.054 231.428 289.161 229.77C290.269 228.112 290.86 226.164 290.86 224.17C290.857 221.497 289.795 218.935 287.905 217.045C286.015 215.155 283.453 214.093 280.78 214.09Z" fill="#00E17F"/>
<path d="M280.78 224.57C280.727 224.57 280.674 224.559 280.625 224.539C280.575 224.518 280.531 224.488 280.494 224.449C280.456 224.411 280.427 224.366 280.408 224.316C280.388 224.266 280.379 224.213 280.38 224.16V218.82C280.395 218.724 280.444 218.636 280.519 218.572C280.593 218.509 280.687 218.474 280.785 218.474C280.883 218.474 280.977 218.509 281.051 218.572C281.126 218.636 281.175 218.724 281.19 218.82V224.16C281.19 224.269 281.147 224.373 281.07 224.45C280.993 224.527 280.889 224.57 280.78 224.57Z" fill="#00E17F"/>
<path d="M287.03 224.57H280.77C280.674 224.555 280.586 224.506 280.522 224.431C280.459 224.357 280.424 224.263 280.424 224.165C280.424 224.067 280.459 223.973 280.522 223.899C280.586 223.824 280.674 223.775 280.77 223.76H287.03C287.126 223.775 287.214 223.824 287.278 223.899C287.341 223.973 287.376 224.067 287.376 224.165C287.376 224.263 287.341 224.357 287.278 224.431C287.214 224.506 287.126 224.555 287.03 224.57Z" fill="#00E17F"/>
<path d="M281.2 214.86C281.2 214.915 281.189 214.969 281.168 215.019C281.147 215.07 281.116 215.115 281.076 215.154C281.037 215.192 280.991 215.222 280.94 215.242C280.889 215.262 280.835 215.271 280.78 215.27C280.726 215.27 280.673 215.259 280.623 215.239C280.573 215.218 280.528 215.188 280.49 215.15C280.452 215.112 280.422 215.067 280.401 215.017C280.381 214.967 280.37 214.914 280.37 214.86C280.37 214.806 280.381 214.753 280.401 214.703C280.422 214.653 280.452 214.608 280.49 214.57C280.528 214.532 280.573 214.502 280.623 214.481C280.673 214.461 280.726 214.45 280.78 214.45C280.835 214.449 280.889 214.458 280.94 214.478C280.991 214.498 281.037 214.528 281.076 214.566C281.116 214.605 281.147 214.65 281.168 214.701C281.189 214.751 281.2 214.805 281.2 214.86Z" fill="#00E17F"/>
<path d="M287.65 217.88C287.612 217.918 287.567 217.948 287.517 217.969C287.467 217.99 287.414 218 287.36 218C287.306 218 287.253 217.99 287.203 217.969C287.153 217.948 287.108 217.918 287.07 217.88C286.992 217.801 286.949 217.695 286.949 217.585C286.949 217.475 286.992 217.369 287.07 217.29C287.108 217.252 287.153 217.222 287.203 217.201C287.253 217.18 287.306 217.17 287.36 217.17C287.414 217.17 287.467 217.18 287.517 217.201C287.567 217.222 287.612 217.252 287.65 217.29C287.728 217.369 287.771 217.475 287.771 217.585C287.771 217.695 287.728 217.801 287.65 217.88Z" fill="#00E17F"/>
<path d="M290.08 224.58C289.97 224.577 289.866 224.532 289.789 224.453C289.713 224.375 289.67 224.27 289.67 224.16C289.685 224.061 289.736 223.971 289.812 223.906C289.888 223.84 289.985 223.805 290.085 223.805C290.185 223.805 290.282 223.84 290.358 223.906C290.434 223.971 290.485 224.061 290.5 224.16C290.5 224.271 290.456 224.378 290.377 224.457C290.298 224.536 290.191 224.58 290.08 224.58Z" fill="#00E17F"/>
<path d="M287.03 231.03C286.992 230.992 286.962 230.947 286.941 230.897C286.92 230.847 286.91 230.794 286.91 230.74C286.91 230.686 286.92 230.633 286.941 230.583C286.962 230.533 286.992 230.488 287.03 230.45C287.067 230.409 287.111 230.377 287.161 230.355C287.211 230.332 287.265 230.321 287.32 230.321C287.375 230.321 287.429 230.332 287.479 230.355C287.529 230.377 287.573 230.409 287.61 230.45C287.687 230.527 287.73 230.631 287.73 230.74C287.73 230.849 287.687 230.953 287.61 231.03C287.533 231.107 287.429 231.15 287.32 231.15C287.211 231.15 287.107 231.107 287.03 231.03Z" fill="#00E17F"/>
<path d="M280.78 233.87C281.006 233.87 281.19 233.686 281.19 233.46C281.19 233.234 281.006 233.05 280.78 233.05C280.554 233.05 280.37 233.234 280.37 233.46C280.37 233.686 280.554 233.87 280.78 233.87Z" fill="#00E17F"/>
<path d="M273.91 230.45C273.948 230.41 273.994 230.379 274.045 230.357C274.095 230.336 274.15 230.325 274.205 230.325C274.26 230.325 274.315 230.336 274.365 230.357C274.416 230.379 274.462 230.41 274.5 230.45C274.538 230.488 274.568 230.533 274.589 230.583C274.61 230.633 274.62 230.686 274.62 230.74C274.62 230.794 274.61 230.847 274.589 230.897C274.568 230.947 274.538 230.992 274.5 231.03C274.421 231.108 274.315 231.151 274.205 231.151C274.095 231.151 273.989 231.108 273.91 231.03C273.872 230.992 273.842 230.947 273.821 230.897C273.8 230.847 273.79 230.794 273.79 230.74C273.79 230.686 273.8 230.633 273.821 230.583C273.842 230.533 273.872 230.488 273.91 230.45Z" fill="#00E17F"/>
<path d="M271.48 223.75C271.535 223.749 271.589 223.758 271.64 223.778C271.691 223.798 271.737 223.828 271.776 223.866C271.816 223.905 271.847 223.95 271.868 224.001C271.889 224.051 271.9 224.105 271.9 224.16C271.9 224.215 271.889 224.27 271.868 224.321C271.847 224.372 271.816 224.418 271.777 224.457C271.738 224.496 271.692 224.527 271.641 224.548C271.59 224.569 271.535 224.58 271.48 224.58C271.425 224.58 271.371 224.569 271.321 224.548C271.27 224.527 271.225 224.496 271.186 224.456C271.148 224.417 271.118 224.371 271.098 224.32C271.078 224.269 271.069 224.215 271.07 224.16C271.07 224.106 271.081 224.053 271.101 224.003C271.122 223.953 271.152 223.908 271.19 223.87C271.228 223.832 271.273 223.802 271.323 223.781C271.373 223.761 271.426 223.75 271.48 223.75Z" fill="#00E17F"/>
<path d="M274.5 217.29C274.559 217.349 274.6 217.423 274.617 217.505C274.633 217.587 274.625 217.671 274.594 217.748C274.562 217.825 274.508 217.891 274.439 217.938C274.37 217.984 274.288 218.009 274.205 218.009C274.122 218.009 274.04 217.984 273.971 217.938C273.902 217.891 273.848 217.825 273.816 217.748C273.785 217.671 273.777 217.587 273.793 217.505C273.81 217.423 273.851 217.349 273.91 217.29C273.989 217.212 274.095 217.169 274.205 217.169C274.315 217.169 274.421 217.212 274.5 217.29Z" fill="#00E17F"/>
<path d="M295.38 218.82H301.26C301.369 218.82 301.473 218.777 301.55 218.7C301.627 218.623 301.67 218.519 301.67 218.41C301.67 218.301 301.627 218.197 301.55 218.12C301.473 218.043 301.369 218 301.26 218H295.38C295.271 218 295.167 218.043 295.09 218.12C295.013 218.197 294.97 218.301 294.97 218.41C294.97 218.519 295.013 218.623 295.09 218.7C295.167 218.777 295.271 218.82 295.38 218.82Z" fill="#00E17F"/>
<path d="M301.26 219.32H295.38C295.139 219.32 294.907 219.224 294.737 219.053C294.566 218.883 294.47 218.651 294.47 218.41C294.47 218.169 294.566 217.937 294.737 217.767C294.907 217.596 295.139 217.5 295.38 217.5H301.26C301.501 217.5 301.733 217.596 301.903 217.767C302.074 217.937 302.17 218.169 302.17 218.41C302.17 218.651 302.074 218.883 301.903 219.053C301.733 219.224 301.501 219.32 301.26 219.32Z" fill="#00E17F"/>
<path d="M301.26 229.51H295.38C295.284 229.525 295.196 229.574 295.132 229.649C295.069 229.723 295.034 229.817 295.034 229.915C295.034 230.013 295.069 230.107 295.132 230.181C295.196 230.256 295.284 230.305 295.38 230.32H301.26C301.356 230.305 301.444 230.256 301.508 230.181C301.571 230.107 301.606 230.013 301.606 229.915C301.606 229.817 301.571 229.723 301.508 229.649C301.444 229.574 301.356 229.525 301.26 229.51Z" fill="#00E17F"/>
<path d="M301.26 230.82H295.38C295.156 230.796 294.949 230.691 294.799 230.524C294.649 230.357 294.565 230.14 294.565 229.915C294.565 229.69 294.649 229.473 294.799 229.306C294.949 229.139 295.156 229.034 295.38 229.01H301.26C301.484 229.034 301.691 229.139 301.841 229.306C301.991 229.473 302.075 229.69 302.075 229.915C302.075 230.14 301.991 230.357 301.841 230.524C301.691 230.691 301.484 230.796 301.26 230.82Z" fill="#00E17F"/>
<path d="M308.57 223.76H297.57C297.511 223.751 297.452 223.754 297.395 223.77C297.338 223.787 297.285 223.815 297.24 223.853C297.195 223.892 297.159 223.94 297.134 223.993C297.109 224.047 297.096 224.106 297.096 224.165C297.096 224.224 297.109 224.283 297.134 224.337C297.159 224.39 297.195 224.438 297.24 224.477C297.285 224.515 297.338 224.543 297.395 224.56C297.452 224.576 297.511 224.579 297.57 224.57H308.57C308.666 224.555 308.754 224.506 308.818 224.431C308.881 224.357 308.916 224.263 308.916 224.165C308.916 224.067 308.881 223.973 308.818 223.899C308.754 223.824 308.666 223.775 308.57 223.76Z" fill="#00E17F"/>
<path d="M308.57 225.09H297.57C297.443 225.103 297.315 225.09 297.194 225.05C297.072 225.011 296.961 224.947 296.866 224.861C296.771 224.776 296.695 224.672 296.643 224.555C296.592 224.439 296.565 224.313 296.565 224.185C296.565 224.057 296.592 223.931 296.643 223.815C296.695 223.698 296.771 223.594 296.866 223.509C296.961 223.423 297.072 223.359 297.194 223.319C297.315 223.28 297.443 223.267 297.57 223.28H308.57C308.794 223.304 309.001 223.409 309.151 223.576C309.301 223.743 309.385 223.96 309.385 224.185C309.385 224.41 309.301 224.627 309.151 224.794C309.001 224.961 308.794 225.066 308.57 225.09Z" fill="#00E17F"/>
<path d="M75.11 239.99V233.47H95.87C98.5752 233.47 101.17 234.545 103.082 236.458C104.995 238.37 106.07 240.965 106.07 243.67V289.79C106.07 290.273 106.165 290.751 106.35 291.197C106.535 291.643 106.807 292.048 107.148 292.389C107.49 292.73 107.896 293 108.342 293.184C108.789 293.367 109.267 293.461 109.75 293.46H129.26C130.233 293.46 131.167 293.073 131.855 292.385C132.543 291.697 132.93 290.763 132.93 289.79V236.73H139.46V289.79C139.455 292.494 138.378 295.085 136.467 296.997C134.555 298.908 131.964 299.985 129.26 299.99H109.75C107.046 299.987 104.453 298.912 102.54 297C100.628 295.087 99.5527 292.494 99.55 289.79V243.67C99.55 242.694 99.1623 241.758 98.4722 241.068C97.782 240.378 96.846 239.99 95.87 239.99H75.11Z" fill="#00E17F"/>
<path d="M79.8 240.25V233.03C79.8 229.059 76.5809 225.84 72.61 225.84H27.96C23.9891 225.84 20.77 229.059 20.77 233.03V240.25C20.77 244.221 23.9891 247.44 27.96 247.44H72.61C76.5809 247.44 79.8 244.221 79.8 240.25Z" fill="#FEFFFD"/>
<path d="M72.61 248.44H27.96C25.7887 248.437 23.7071 247.574 22.1717 246.038C20.6364 244.503 19.7727 242.421 19.77 240.25V233.03C19.77 230.858 20.6329 228.775 22.1688 227.239C23.7047 225.703 25.7879 224.84 27.96 224.84H72.61C74.7821 224.84 76.8653 225.703 78.4012 227.239C79.9371 228.775 80.8 230.858 80.8 233.03V240.25C80.7974 242.421 79.9336 244.503 78.3983 246.038C76.8629 247.574 74.7813 248.437 72.61 248.44ZM27.96 226.84C26.3191 226.843 24.7462 227.496 23.5859 228.656C22.4257 229.816 21.7726 231.389 21.77 233.03V240.25C21.7726 241.891 22.4257 243.464 23.5859 244.624C24.7462 245.784 26.3191 246.437 27.96 246.44H72.61C74.2517 246.44 75.8261 245.788 76.987 244.627C78.1478 243.466 78.8 241.892 78.8 240.25V233.03C78.8 231.388 78.1478 229.814 76.987 228.653C75.8261 227.492 74.2517 226.84 72.61 226.84H27.96Z" fill="#00E17F"/>
<path d="M148.77 277.32V173.43C148.77 169.459 145.551 166.24 141.58 166.24H126.15C122.179 166.24 118.96 169.459 118.96 173.43V277.32C118.96 281.291 122.179 284.51 126.15 284.51H141.58C145.551 284.51 148.77 281.291 148.77 277.32Z" fill="#FEFFFD"/>
<path d="M141.59 285.52H126.15C123.979 285.517 121.897 284.654 120.362 283.118C118.826 281.583 117.963 279.501 117.96 277.33V173.43C117.963 171.259 118.826 169.177 120.362 167.642C121.897 166.106 123.979 165.243 126.15 165.24H141.59C143.76 165.245 145.839 166.11 147.372 167.645C148.905 169.18 149.767 171.26 149.77 173.43V277.33C149.767 279.5 148.905 281.58 147.372 283.115C145.839 284.65 143.76 285.515 141.59 285.52ZM126.15 167.24C124.509 167.243 122.936 167.896 121.776 169.056C120.616 170.216 119.963 171.789 119.96 173.43V277.33C119.963 278.971 120.616 280.544 121.776 281.704C122.936 282.864 124.509 283.517 126.15 283.52H141.59C143.23 283.517 144.802 282.864 145.961 281.703C147.119 280.543 147.77 278.97 147.77 277.33V173.43C147.77 171.79 147.119 170.217 145.961 169.057C144.802 167.896 143.23 167.243 141.59 167.24H126.15Z" fill="#00E17F"/>
<path d="M124.33 275.83V272.5C124.33 272.301 124.251 272.11 124.11 271.97C123.97 271.829 123.779 271.75 123.58 271.75C123.381 271.75 123.19 271.829 123.05 271.97C122.909 272.11 122.83 272.301 122.83 272.5V275.83C122.83 276.029 122.909 276.22 123.05 276.36C123.19 276.501 123.381 276.58 123.58 276.58C123.779 276.58 123.97 276.501 124.11 276.36C124.251 276.22 124.33 276.029 124.33 275.83Z" fill="#A8CFE2"/>
<path d="M136.94 272.56L142.22 271.06Z" fill="#A8CFE2"/>
<path d="M137.14 273.29L142.42 271.78C142.596 271.714 142.741 271.585 142.826 271.418C142.912 271.251 142.931 271.057 142.881 270.876C142.831 270.695 142.714 270.54 142.555 270.441C142.395 270.341 142.205 270.305 142.02 270.34L136.74 271.84C136.548 271.893 136.384 272.02 136.286 272.194C136.187 272.367 136.162 272.573 136.215 272.765C136.268 272.957 136.395 273.121 136.569 273.219C136.742 273.317 136.948 273.343 137.14 273.29Z" fill="#A8CFE2"/>
<path d="M127.55 254.51C127.818 255.286 128.261 255.989 128.846 256.565C129.43 257.141 130.14 257.574 130.92 257.83" fill="#A8CFE2"/>
<path d="M126.83 254.71C127.143 255.606 127.655 256.418 128.33 257.085C129.004 257.752 129.821 258.257 130.72 258.56C131.63 258.87 132.03 257.42 131.12 257.11C130.466 256.886 129.871 256.518 129.377 256.033C128.884 255.549 128.506 254.96 128.27 254.31C127.95 253.41 126.5 253.8 126.83 254.71Z" fill="#A8CFE2"/>
<path d="M136.24 249.09L140.24 247.74L136.24 249.09Z" fill="#A8CFE2"/>
<path d="M136.44 249.86L140.44 248.51C141.35 248.2 140.96 246.75 140.04 247.06L136.04 248.41C135.13 248.72 135.52 250.17 136.44 249.86Z" fill="#A8CFE2"/>
<path d="M138.81 257.93C139.47 258.61 140.14 259.28 140.81 259.93Z" fill="#A8CFE2"/>
<path d="M138.28 258.46C138.94 259.14 139.61 259.81 140.28 260.46C140.95 261.11 142.01 260.09 141.34 259.4C140.67 258.71 140.02 258.05 139.34 257.4C138.66 256.75 137.61 257.77 138.28 258.46Z" fill="#A8CFE2"/>
<path d="M124.33 235.78C125.557 237.626 127.061 239.272 128.79 240.66Z" fill="#A8CFE2"/>
<path d="M123.68 236.16C124.954 238.039 126.493 239.723 128.25 241.16C129 241.77 130.06 240.71 129.32 240.1C127.651 238.74 126.186 237.147 124.97 235.37C124.43 234.58 123.13 235.37 123.68 236.13V236.16Z" fill="#A8CFE2"/>
<path d="M132.93 225.88C134.571 225.532 136.008 224.551 136.93 223.15Z" fill="#A8CFE2"/>
<path d="M133.13 226.6C134.936 226.174 136.513 225.076 137.54 223.53C138.08 222.73 136.78 221.97 136.24 222.77C135.418 223.984 134.162 224.836 132.73 225.15C131.79 225.37 132.19 226.82 133.13 226.6Z" fill="#A8CFE2"/>
<path d="M132.28 233.95L135.6 233.25Z" fill="#A8CFE2"/>
<path d="M132.48 234.68L135.8 233.98C136.75 233.78 136.35 232.33 135.4 232.53L132.08 233.23C131.08 233.43 131.53 234.88 132.48 234.68Z" fill="#A8CFE2"/>
<path d="M124.78 224.46C125.247 222.907 125.71 221.357 126.17 219.81Z" fill="#A8CFE2"/>
<path d="M125.51 224.66L126.89 220.01C126.925 219.825 126.889 219.635 126.789 219.475C126.69 219.316 126.535 219.199 126.354 219.149C126.173 219.099 125.979 219.118 125.812 219.204C125.645 219.289 125.516 219.434 125.45 219.61C124.977 221.163 124.513 222.713 124.06 224.26C123.78 225.19 125.23 225.58 125.51 224.66Z" fill="#A8CFE2"/>
<path d="M122.89 206.49C123.202 204.473 124.139 202.605 125.57 201.15Z" fill="#A8CFE2"/>
<path d="M123.62 206.69C123.92 204.81 124.785 203.066 126.1 201.69C126.77 201 125.71 199.94 125.04 200.63C123.533 202.187 122.532 204.164 122.17 206.3C122.01 207.25 123.45 207.66 123.62 206.7V206.69Z" fill="#A8CFE2"/>
<path d="M131.52 205.27L135.6 207.81Z" fill="#A8CFE2"/>
<path d="M131.14 205.92L135.22 208.45C136.04 208.96 136.8 207.67 135.98 207.16L131.9 204.62C131.07 204.11 130.32 205.41 131.14 205.92Z" fill="#A8CFE2"/>
<path d="M126.25 211.83L126.92 211.16Z" fill="#A8CFE2"/>
<path d="M126.78 212.36L127.45 211.7C128.13 211.01 127.07 209.95 126.39 210.63L125.72 211.3C125.04 211.98 126.1 213.05 126.78 212.36Z" fill="#A8CFE2"/>
<path d="M126.28 185.16C126.465 186.688 127.115 188.122 128.14 189.27Z" fill="#A8CFE2"/>
<path d="M125.56 185.36C125.794 187.009 126.507 188.552 127.61 189.8C128.24 190.53 129.3 189.46 128.67 188.73C127.754 187.666 127.176 186.354 127.01 184.96C126.88 183.96 125.43 184.41 125.56 185.36Z" fill="#A8CFE2"/>
<path d="M122.21 171.85C122.432 172.349 122.825 172.752 123.318 172.987C123.812 173.222 124.373 173.273 124.9 173.13" fill="#A8CFE2"/>
<path d="M121.56 172.23C121.861 172.877 122.383 173.395 123.032 173.692C123.68 173.989 124.414 174.045 125.1 173.85C125.292 173.798 125.456 173.672 125.556 173.5C125.655 173.327 125.682 173.122 125.63 172.93C125.578 172.738 125.452 172.574 125.28 172.474C125.107 172.375 124.902 172.348 124.71 172.4C124.341 172.5 123.948 172.461 123.607 172.289C123.265 172.118 122.999 171.826 122.86 171.47C122.47 170.59 121.18 171.35 121.56 172.23Z" fill="#A8CFE2"/>
<path d="M135.51 171.2L136.19 172.53Z" fill="#A8CFE2"/>
<path d="M134.86 171.58L135.54 172.91C135.98 173.77 137.27 173.01 136.84 172.15C136.61 171.71 136.38 171.27 136.16 170.82C135.72 169.96 134.43 170.72 134.86 171.58Z" fill="#A8CFE2"/>
<path d="M140.25 190.5L143.58 193.83Z" fill="#A8CFE2"/>
<path d="M139.72 191.03L143.05 194.36C143.192 194.492 143.38 194.565 143.575 194.561C143.769 194.558 143.954 194.479 144.092 194.342C144.229 194.204 144.308 194.019 144.311 193.825C144.315 193.63 144.242 193.442 144.11 193.3L140.78 189.97C140.1 189.28 139.04 190.34 139.72 191.03Z" fill="#A8CFE2"/>
<path d="M133.03 182.6C133.46 182.15 133.89 181.69 134.33 181.24Z" fill="#A8CFE2"/>
<path d="M133.56 183.09C133.99 182.64 134.42 182.18 134.86 181.73C135.52 181.03 134.46 179.96 133.8 180.67C133.36 181.12 132.93 181.58 132.5 182.03C131.83 182.73 132.89 183.79 133.56 183.09Z" fill="#A8CFE2"/>
<path d="M141.5 175.16V178.5C141.5 178.699 141.579 178.89 141.72 179.03C141.86 179.171 142.051 179.25 142.25 179.25C142.449 179.25 142.64 179.171 142.78 179.03C142.921 178.89 143 178.699 143 178.5V175.16C143 174.961 142.921 174.77 142.78 174.63C142.64 174.489 142.449 174.41 142.25 174.41C142.051 174.41 141.86 174.489 141.72 174.63C141.579 174.77 141.5 174.961 141.5 175.16Z" fill="#A8CFE2"/>
<path d="M142.77 210.54C142.99 211.42 143.22 212.31 143.44 213.2Z" fill="#A8CFE2"/>
<path d="M142.03 210.73C142.25 211.62 142.47 212.51 142.7 213.4C142.766 213.576 142.895 213.721 143.062 213.806C143.229 213.892 143.423 213.911 143.604 213.861C143.785 213.811 143.94 213.694 144.039 213.535C144.139 213.375 144.175 213.185 144.14 213C143.92 212.11 143.7 211.22 143.47 210.34C143.403 210.167 143.275 210.025 143.109 209.941C142.944 209.857 142.753 209.838 142.574 209.886C142.395 209.935 142.241 210.048 142.14 210.204C142.04 210.359 142 210.547 142.03 210.73Z" fill="#A8CFE2"/>
<path d="M143.58 230.5L145.58 229.16L143.58 230.5Z" fill="#A8CFE2"/>
<path d="M143.96 231.15L145.96 229.81C146.76 229.28 145.96 227.98 145.21 228.52L143.21 229.85C142.41 230.38 143.16 231.68 143.96 231.15Z" fill="#A8CFE2"/>
<path d="M122.25 250.5C122.292 249.732 122.492 248.981 122.836 248.293C123.18 247.605 123.661 246.995 124.25 246.5" fill="#A8CFE2"/>
<path d="M123.03 250.5C123.07 249.827 123.246 249.169 123.546 248.566C123.847 247.963 124.267 247.427 124.78 246.99C125.5 246.35 124.44 245.29 123.72 245.93C123.069 246.507 122.54 247.209 122.164 247.994C121.788 248.779 121.572 249.631 121.53 250.5C121.47 251.5 122.97 251.5 123.03 250.5Z" fill="#A8CFE2"/>
<path d="M142.85 239.85L144.26 244.5Z" fill="#A8CFE2"/>
<path d="M142.13 240.09C142.6 241.64 143.06 243.19 143.53 244.74C143.81 245.66 145.26 245.26 144.98 244.34L143.57 239.69C143.29 238.77 141.84 239.16 142.13 240.09Z" fill="#A8CFE2"/>
<path d="M130.29 267.84C129.932 269.64 130.117 271.505 130.82 273.2Z" fill="#A8CFE2"/>
<path d="M129.57 267.64C129.193 269.571 129.377 271.57 130.1 273.4C130.45 274.29 131.91 273.9 131.55 273C130.891 271.42 130.704 269.684 131.01 268C131.19 267.06 129.74 266.65 129.57 267.6V267.64Z" fill="#A8CFE2"/>
<path d="M138.24 279.79L140.89 279.08Z" fill="#A8CFE2"/>
<path d="M138.44 280.51L141.09 279.8C141.282 279.747 141.446 279.62 141.544 279.446C141.643 279.273 141.668 279.067 141.615 278.875C141.562 278.683 141.435 278.519 141.261 278.421C141.088 278.322 140.882 278.297 140.69 278.35L138.03 279.09C137.838 279.143 137.674 279.27 137.576 279.444C137.477 279.617 137.452 279.823 137.505 280.015C137.558 280.207 137.685 280.371 137.859 280.469C138.032 280.568 138.238 280.593 138.43 280.54L138.44 280.51Z" fill="#A8CFE2"/>
<path d="M137.62 198.49C137.766 198.896 138.04 199.245 138.4 199.483C138.761 199.721 139.189 199.835 139.62 199.81" fill="#A8CFE2"/>
<path d="M136.89 198.69C137.078 199.249 137.442 199.733 137.926 200.069C138.411 200.406 138.99 200.578 139.58 200.56C140.58 200.56 140.58 199.02 139.58 199.06C139.318 199.081 139.057 199.017 138.833 198.879C138.61 198.74 138.437 198.534 138.34 198.29C138.01 197.39 136.56 197.78 136.89 198.69Z" fill="#A8CFE2"/>
<path d="M145.58 203.83C145.81 204.05 146.03 204.28 146.25 204.5Z" fill="#A8CFE2"/>
<path d="M145.03 204.36L145.7 205.03C145.842 205.162 146.03 205.235 146.225 205.231C146.419 205.228 146.604 205.149 146.742 205.012C146.879 204.874 146.958 204.689 146.961 204.495C146.965 204.3 146.892 204.112 146.76 203.97L146.09 203.3C145.948 203.168 145.76 203.095 145.565 203.099C145.371 203.102 145.186 203.181 145.048 203.318C144.911 203.456 144.832 203.641 144.829 203.835C144.825 204.03 144.898 204.218 145.03 204.36Z" fill="#A8CFE2"/>
<path d="M77.22 109.73H36.92C36.6548 109.73 36.4004 109.625 36.2129 109.437C36.0254 109.25 35.92 108.995 35.92 108.73C35.92 108.465 36.0254 108.21 36.2129 108.023C36.4004 107.835 36.6548 107.73 36.92 107.73H77.22C77.4852 107.73 77.7396 107.835 77.9271 108.023C78.1146 108.21 78.22 108.465 78.22 108.73C78.22 108.995 78.1146 109.25 77.9271 109.437C77.7396 109.625 77.4852 109.73 77.22 109.73Z" fill="#82C965"/>
<path d="M300.44 67.86H274.63C274.365 67.86 274.11 67.7546 273.923 67.5671C273.735 67.3796 273.63 67.1252 273.63 66.86C273.63 66.5948 273.735 66.3404 273.923 66.1529C274.11 65.9653 274.365 65.86 274.63 65.86H300.44C300.705 65.86 300.96 65.9653 301.147 66.1529C301.335 66.3404 301.44 66.5948 301.44 66.86C301.44 67.1252 301.335 67.3796 301.147 67.5671C300.96 67.7546 300.705 67.86 300.44 67.86Z" fill="#00E17F"/>
<path d="M300.44 73.52H260.14C259.875 73.52 259.62 73.4146 259.433 73.2271C259.245 73.0396 259.14 72.7852 259.14 72.52C259.14 72.2548 259.245 72.0004 259.433 71.8129C259.62 71.6254 259.875 71.52 260.14 71.52H300.44C300.705 71.52 300.96 71.6254 301.147 71.8129C301.335 72.0004 301.44 72.2548 301.44 72.52C301.44 72.7852 301.335 73.0396 301.147 73.2271C300.96 73.4146 300.705 73.52 300.44 73.52Z" fill="#00E17F"/>
<path d="M84.92 98.09H71.44C71.1748 98.09 70.9204 97.9846 70.7329 97.7971C70.5454 97.6096 70.44 97.3552 70.44 97.09C70.44 96.8248 70.5454 96.5704 70.7329 96.3829C70.9204 96.1954 71.1748 96.09 71.44 96.09H84.92C85.1852 96.09 85.4396 96.1954 85.6271 96.3829C85.8146 96.5704 85.92 96.8248 85.92 97.09C85.92 97.3552 85.8146 97.6096 85.6271 97.7971C85.4396 97.9846 85.1852 98.09 84.92 98.09Z" fill="#82C965"/>
<path d="M105.03 118.03H91.59C91.3248 118.03 91.0704 117.925 90.8829 117.737C90.6954 117.55 90.59 117.295 90.59 117.03C90.59 116.765 90.6954 116.51 90.8829 116.323C91.0704 116.135 91.3248 116.03 91.59 116.03H105.03C105.295 116.03 105.55 116.135 105.737 116.323C105.925 116.51 106.03 116.765 106.03 117.03C106.03 117.295 105.925 117.55 105.737 117.737C105.55 117.925 105.295 118.03 105.03 118.03Z" fill="#82C965"/>
<path d="M145.58 326.8C145.408 326.796 145.237 326.773 145.07 326.73L138.07 324.73C137.631 324.567 137.269 324.244 137.056 323.827C136.843 323.409 136.795 322.927 136.921 322.476C137.046 322.024 137.337 321.636 137.735 321.389C138.133 321.142 138.61 321.053 139.07 321.14L146.07 323.14C146.497 323.269 146.864 323.546 147.104 323.922C147.345 324.297 147.443 324.747 147.382 325.188C147.32 325.63 147.103 326.035 146.769 326.331C146.435 326.626 146.006 326.793 145.56 326.8H145.58Z" fill="#00E17F"/>
<path d="M141.09 329.29C140.918 329.291 140.746 329.268 140.58 329.22C140.345 329.153 140.125 329.041 139.934 328.889C139.742 328.737 139.582 328.549 139.463 328.335C139.344 328.122 139.269 327.887 139.241 327.644C139.213 327.401 139.233 327.155 139.3 326.92L141.3 319.92C141.463 319.481 141.786 319.119 142.203 318.906C142.621 318.693 143.103 318.645 143.554 318.771C144.006 318.896 144.394 319.187 144.641 319.585C144.888 319.983 144.977 320.46 144.89 320.92L142.89 327.92C142.782 328.314 142.548 328.662 142.222 328.91C141.897 329.158 141.499 329.291 141.09 329.29Z" fill="#00E17F"/>
<path d="M26.73 165.76C26.5374 165.758 26.3458 165.731 26.16 165.68L18.44 163.48C17.9096 163.33 17.4604 162.976 17.1913 162.495C16.9222 162.014 16.8552 161.445 17.005 160.915C17.1549 160.385 17.5093 159.935 17.9903 159.666C18.4713 159.397 19.0396 159.33 19.57 159.48L27.29 161.68C27.7389 161.838 28.1194 162.146 28.3669 162.552C28.6144 162.959 28.7136 163.438 28.6476 163.909C28.5816 164.38 28.3546 164.814 28.005 165.137C27.6555 165.46 27.205 165.652 26.73 165.68V165.76Z" fill="#00E17F"/>
<path d="M21.77 168.52C21.5773 168.518 21.3858 168.491 21.2 168.44C20.939 168.366 20.6952 168.242 20.4825 168.074C20.2698 167.905 20.0924 167.697 19.9605 167.46C19.8285 167.223 19.7447 166.962 19.7137 166.693C19.6827 166.424 19.7053 166.151 19.78 165.89L21.99 158.17C22.0642 157.907 22.1894 157.662 22.3585 157.448C22.5275 157.233 22.7371 157.055 22.9753 156.921C23.2135 156.788 23.4756 156.703 23.7466 156.671C24.0177 156.639 24.2924 156.661 24.555 156.735C24.8176 156.809 25.0631 156.934 25.2774 157.103C25.4916 157.273 25.6705 157.482 25.8037 157.72C25.937 157.958 26.022 158.221 26.054 158.492C26.0859 158.763 26.0642 159.037 25.99 159.3L23.79 167.02C23.6648 167.457 23.3992 167.841 23.034 168.112C22.6689 168.383 22.2247 168.527 21.77 168.52Z" fill="#00E17F"/>
<path d="M274.72 120.97C274.68 120.84 274.66 120.706 274.66 120.57L274.6 114.88C274.6 114.493 274.754 114.121 275.028 113.848C275.301 113.574 275.673 113.42 276.06 113.42C276.447 113.42 276.819 113.574 277.092 113.848C277.366 114.121 277.52 114.493 277.52 114.88L277.58 120.57C277.584 120.922 277.46 121.264 277.232 121.533C277.003 121.801 276.686 121.977 276.337 122.03C275.989 122.082 275.633 122.007 275.336 121.818C275.039 121.628 274.82 121.338 274.72 121V120.97Z" fill="#00E17F"/>
<path d="M271.84 118.15C271.809 118.019 271.789 117.885 271.78 117.75C271.78 117.364 271.932 116.993 272.203 116.718C272.475 116.442 272.844 116.285 273.23 116.28L278.92 116.22C279.307 116.22 279.679 116.374 279.952 116.648C280.226 116.921 280.38 117.293 280.38 117.68C280.38 118.067 280.226 118.439 279.952 118.712C279.679 118.986 279.307 119.14 278.92 119.14L273.23 119.2C272.917 119.194 272.614 119.09 272.364 118.901C272.114 118.713 271.931 118.45 271.84 118.15Z" fill="#00E17F"/>
<path d="M268.76 252.78C268.712 252.624 268.685 252.463 268.68 252.3L268.61 245.42C268.61 244.951 268.796 244.5 269.128 244.168C269.46 243.836 269.911 243.65 270.38 243.65C270.849 243.65 271.3 243.836 271.632 244.168C271.964 244.5 272.15 244.951 272.15 245.42L272.22 252.29C272.223 252.522 272.179 252.753 272.093 252.969C272.006 253.185 271.878 253.381 271.716 253.547C271.553 253.714 271.36 253.846 271.146 253.938C270.932 254.029 270.702 254.077 270.47 254.08C270.081 254.082 269.703 253.956 269.394 253.721C269.084 253.486 268.862 253.155 268.76 252.78Z" fill="#00E17F"/>
<path d="M265.28 249.38C265.236 249.224 265.213 249.062 265.21 248.9C265.207 248.668 265.251 248.437 265.337 248.221C265.424 248.005 265.552 247.809 265.714 247.643C265.877 247.476 266.07 247.344 266.284 247.252C266.498 247.161 266.728 247.113 266.96 247.11L273.84 247.04C274.309 247.04 274.76 247.226 275.092 247.558C275.424 247.89 275.61 248.341 275.61 248.81C275.61 249.279 275.424 249.73 275.092 250.062C274.76 250.394 274.309 250.58 273.84 250.58L266.96 250.64C266.582 250.638 266.214 250.515 265.911 250.288C265.609 250.061 265.387 249.743 265.28 249.38Z" fill="#00E17F"/>
<path d="M66.59 278.35H53.51V265.27H66.59V278.35ZM55.51 276.35H64.59V267.27H55.51V276.35Z" fill="#00E17F"/>
<path d="M43.12 269.09H51.8C51.9591 269.09 52.1117 269.027 52.2243 268.914C52.3368 268.802 52.4 268.649 52.4 268.49C52.4 268.331 52.3368 268.178 52.2243 268.066C52.1117 267.953 51.9591 267.89 51.8 267.89H43.12C42.9609 267.89 42.8082 267.953 42.6957 268.066C42.5832 268.178 42.52 268.331 42.52 268.49C42.52 268.649 42.5832 268.802 42.6957 268.914C42.8082 269.027 42.9609 269.09 43.12 269.09Z" fill="#00E17F"/>
<path d="M39.86 275.7H51.59C52.04 275.7 52.4 275.43 52.4 275.1C52.4 274.77 52.04 274.5 51.59 274.5H39.86C39.41 274.5 39.05 274.77 39.05 275.1C39.05 275.43 39.41 275.7 39.86 275.7Z" fill="#00E17F"/>
<path d="M35.58 272.23H51.8C51.9591 272.23 52.1117 272.167 52.2243 272.054C52.3368 271.942 52.4 271.789 52.4 271.63C52.4 271.471 52.3368 271.318 52.2243 271.206C52.1117 271.093 51.9591 271.03 51.8 271.03H35.58C35.4209 271.03 35.2683 271.093 35.1557 271.206C35.0432 271.318 34.98 271.471 34.98 271.63C34.98 271.789 35.0432 271.942 35.1557 272.054C35.2683 272.167 35.4209 272.23 35.58 272.23Z" fill="#00E17F"/>
<path d="M200.35 89.48H187.28V76.4H200.35V89.48ZM189.28 87.48H198.35V78.4H189.28V87.48Z" fill="#00E17F"/>
<path d="M210.75 80.25H202.03C201.945 80.261 201.859 80.2538 201.778 80.2289C201.696 80.2041 201.621 80.1621 201.557 80.1058C201.493 80.0494 201.441 79.9801 201.406 79.9024C201.371 79.8247 201.353 79.7403 201.353 79.655C201.353 79.5697 201.371 79.4853 201.406 79.4076C201.441 79.3299 201.493 79.2605 201.557 79.2042C201.621 79.1479 201.696 79.1059 201.778 79.0811C201.859 79.0562 201.945 79.049 202.03 79.06H210.71C210.795 79.049 210.881 79.0562 210.962 79.0811C211.044 79.1059 211.119 79.1479 211.183 79.2042C211.247 79.2605 211.299 79.3299 211.334 79.4076C211.369 79.4853 211.387 79.5697 211.387 79.655C211.387 79.7403 211.369 79.8247 211.334 79.9024C211.299 79.9801 211.247 80.0494 211.183 80.1058C211.119 80.1621 211.044 80.2041 210.962 80.2289C210.881 80.2538 210.795 80.261 210.71 80.25H210.75Z" fill="#00E17F"/>
<path d="M214.03 86.82H202.28C201.83 86.82 201.47 86.56 201.47 86.23C201.47 85.9 201.83 85.63 202.28 85.63H214.03C214.48 85.63 214.84 85.89 214.84 86.23C214.84 86.57 214.46 86.82 214.03 86.82Z" fill="#00E17F"/>
<path d="M218.28 83.35H202.03C201.945 83.361 201.859 83.3538 201.778 83.3289C201.696 83.3041 201.621 83.2621 201.557 83.2058C201.493 83.1494 201.441 83.0801 201.406 83.0024C201.371 82.9246 201.353 82.8403 201.353 82.755C201.353 82.6697 201.371 82.5853 201.406 82.5076C201.441 82.4299 201.493 82.3605 201.557 82.3042C201.621 82.2479 201.696 82.2059 201.778 82.1811C201.859 82.1562 201.945 82.149 202.03 82.16H218.24C218.325 82.149 218.411 82.1562 218.492 82.1811C218.574 82.2059 218.649 82.2479 218.713 82.3042C218.777 82.3605 218.829 82.4299 218.864 82.5076C218.899 82.5853 218.917 82.6697 218.917 82.755C218.917 82.8403 218.899 82.9246 218.864 83.0024C218.829 83.0801 218.777 83.1494 218.713 83.2058C218.649 83.2621 218.574 83.3041 218.492 83.3289C218.411 83.3538 218.325 83.361 218.24 83.35H218.28Z" fill="#00E17F"/>
<path d="M117.92 126.71C118.394 126.675 118.837 126.463 119.16 126.115C119.483 125.767 119.663 125.31 119.663 124.835C119.663 124.36 119.483 123.903 119.16 123.555C118.837 123.207 118.394 122.995 117.92 122.96C117.446 122.995 117.003 123.207 116.68 123.555C116.357 123.903 116.177 124.36 116.177 124.835C116.177 125.31 116.357 125.767 116.68 126.115C117.003 126.463 117.446 126.675 117.92 126.71Z" fill="#F26949"/>
<path d="M80.92 299.71C81.3936 299.675 81.8366 299.463 82.1599 299.115C82.4833 298.767 82.663 298.31 82.663 297.835C82.663 297.36 82.4833 296.903 82.1599 296.555C81.8366 296.207 81.3936 295.995 80.92 295.96C80.4464 295.995 80.0034 296.207 79.6801 296.555C79.3567 296.903 79.177 297.36 79.177 297.835C79.177 298.31 79.3567 298.767 79.6801 299.115C80.0034 299.463 80.4464 299.675 80.92 299.71Z" fill="#F26949"/>
<path d="M272.92 277.58C277.74 277.58 277.75 270.08 272.92 270.08C268.09 270.08 268.08 277.58 272.92 277.58Z" fill="#00E17F"/>
<path d="M170.92 66.58C175.74 66.58 175.75 59.08 170.92 59.08C166.09 59.08 166.08 66.58 170.92 66.58Z" fill="#00E17F"/>
<path d="M208.92 335.58C213.74 335.58 213.75 328.08 208.92 328.08C204.09 328.08 204.08 335.58 208.92 335.58Z" fill="#00E17F"/>
<path d="M10.12 212.32C9.60091 206.289 11.3877 200.286 15.12 195.52C16 194.39 14.42 192.79 13.53 193.93C9.3953 199.127 7.38676 205.699 7.91 212.32C8.02 213.76 10.27 213.77 10.16 212.32H10.12Z" fill="#00E17F"/>
<path d="M17.42 194.46H17.92C18.2001 194.434 18.4602 194.304 18.6495 194.096C18.8389 193.888 18.9438 193.616 18.9438 193.335C18.9438 193.054 18.8389 192.782 18.6495 192.574C18.4602 192.366 18.2001 192.236 17.92 192.21H17.42C17.1399 192.236 16.8798 192.366 16.6905 192.574C16.5011 192.782 16.3962 193.054 16.3962 193.335C16.3962 193.616 16.5011 193.888 16.6905 194.096C16.8798 194.304 17.1399 194.434 17.42 194.46Z" fill="#00E17F"/>
<path d="M58.29 148.83V149.33C58.3164 149.61 58.4464 149.87 58.6544 150.06C58.8625 150.249 59.1337 150.354 59.415 150.354C59.6963 150.354 59.9675 150.249 60.1756 150.06C60.3836 149.87 60.5136 149.61 60.54 149.33V148.83C60.5136 148.55 60.3836 148.29 60.1756 148.1C59.9675 147.911 59.6963 147.806 59.415 147.806C59.1337 147.806 58.8625 147.911 58.6544 148.1C58.4464 148.29 58.3164 148.55 58.29 148.83Z" fill="#00E17F"/>
<path d="M61.29 148.83V149.33C61.3164 149.61 61.4464 149.87 61.6544 150.06C61.8625 150.249 62.1337 150.354 62.415 150.354C62.6963 150.354 62.9675 150.249 63.1756 150.06C63.3836 149.87 63.5136 149.61 63.54 149.33V148.83C63.5136 148.55 63.3836 148.29 63.1756 148.1C62.9675 147.911 62.6963 147.806 62.415 147.806C62.1337 147.806 61.8625 147.911 61.6544 148.1C61.4464 148.29 61.3164 148.55 61.29 148.83Z" fill="#00E17F"/>
<path d="M297.44 147.59C298.521 147.727 299.564 148.076 300.509 148.618C301.454 149.16 302.282 149.884 302.946 150.747C303.609 151.611 304.096 152.598 304.376 153.65C304.657 154.703 304.726 155.8 304.58 156.88C304.39 158.31 306.64 158.3 306.83 156.88C306.978 155.505 306.852 154.113 306.459 152.787C306.066 151.461 305.414 150.225 304.541 149.152C303.668 148.079 302.591 147.19 301.372 146.535C300.153 145.881 298.817 145.475 297.44 145.34C296 145.19 296.01 147.44 297.44 147.59Z" fill="#00E17F"/>
<path d="M305.92 162.46C306.2 162.434 306.46 162.304 306.65 162.096C306.839 161.888 306.944 161.616 306.944 161.335C306.944 161.054 306.839 160.782 306.65 160.574C306.46 160.366 306.2 160.236 305.92 160.21C305.64 160.236 305.38 160.366 305.19 160.574C305.001 160.782 304.896 161.054 304.896 161.335C304.896 161.616 305.001 161.888 305.19 162.096C305.38 162.304 305.64 162.434 305.92 162.46Z" fill="#00E17F"/>
<path d="M0.890011 234.93C2.65171 237.784 5.24436 240.032 8.32001 241.37C9.64001 241.94 10.78 240 9.46001 239.43C6.72237 238.281 4.40914 236.31 2.84001 233.79C2.07001 232.57 0.120008 233.7 0.840008 234.93H0.890011Z" fill="#00E17F"/>
<path d="M2.03002 242.34C2.75943 243.625 3.85147 244.665 5.1695 245.332C6.48752 245.999 7.97299 246.263 9.44002 246.09C10.86 245.92 10.88 243.67 9.44002 243.84C8.37759 243.992 7.29395 243.822 6.3294 243.351C5.36485 242.881 4.56382 242.131 4.03002 241.2C3.87884 240.935 3.6285 240.74 3.33407 240.66C3.03964 240.579 2.72523 240.619 2.46002 240.77C2.1948 240.921 2.0005 241.172 1.91985 241.466C1.83921 241.76 1.87884 242.075 2.03002 242.34Z" fill="#00E17F"/>
<path d="M311.82 129.36C315.708 131.46 318.773 134.811 320.52 138.87C321.1 140.19 323.04 139.05 322.46 137.73C320.528 133.329 317.181 129.7 312.95 127.42C311.68 126.73 310.54 128.67 311.82 129.36Z" fill="#00E17F"/>
<path d="M322.92 144.46C323.2 144.434 323.46 144.304 323.65 144.096C323.839 143.888 323.944 143.616 323.944 143.335C323.944 143.054 323.839 142.782 323.65 142.574C323.46 142.366 323.2 142.236 322.92 142.21C322.64 142.236 322.38 142.366 322.19 142.574C322.001 142.782 321.896 143.054 321.896 143.335C321.896 143.616 322.001 143.888 322.19 144.096C322.38 144.304 322.64 144.434 322.92 144.46Z" fill="#00E17F"/>
<path d="M319.83 129.33C322.127 131.053 323.843 133.436 324.75 136.16C325.21 137.52 327.38 136.94 326.92 135.56C325.818 132.279 323.721 129.423 320.92 127.39C319.76 126.53 318.64 128.48 319.79 129.33H319.83Z" fill="#00E17F"/>
<path d="M280.28 23.09H261.54V40.73H280.28V23.09Z" fill="#97C483"/>
<path d="M152.73 69.02H138.67V83.35H152.73V69.02Z" fill="#97C483"/>
<path d="M291.42 314L272.37 323.21L268.06 295.6L272.46 293.48L291.42 314Z" fill="#00E17F"/>
<path d="M292.989 313.257L270.796 323.986L272.123 326.732L294.316 316.003L292.989 313.257Z" fill="#00E17F"/>
<path d="M271.3 316.31L272.37 323.21L291.42 314L286.68 308.87L271.3 316.31Z" fill="white"/>
<path d="M270.22 309.4L281.94 303.74L277.2 298.61L269.14 302.5L270.22 309.4Z" fill="white"/>
</g>
<defs>
<clipPath id="clip0_0_3">
<rect width="330.05" height="335.58" fill="white"/>
</clipPath>
</defs>
</svg>
